solid 17facet normal 1 0 0
  outer loop
    vertex 1 -3 0
    vertex 1 -4 1
    vertex 1 -5 0
  endloop
endfacet

facet normal 1 0 0
  outer loop
    vertex 1 -5 0
    vertex 1 -4 -1
    vertex 1 -3 0
  endloop
endfacet

facet normal 1 0 0
  outer loop
    vertex 2 -1 -2
    vertex 2 -2 -1
    vertex 2 -3 -2
  endloop
endfacet

facet normal 1 0 0
  outer loop
    vertex 2 -3 -2
    vertex 2 -2 -3
    vertex 2 -1 -2
  endloop
endfacet

facet normal 1 0 0
  outer loop
    vertex 1 -1 0
    vertex 1 -2 1
    vertex 1 -3 0
  endloop
endfacet

facet normal 1 0 0
  outer loop
    vertex 1 -3 0
    vertex 1 -2 -1
    vertex 1 -1 0
  endloop
endfacet

facet normal 1 0 0
  outer loop
    vertex 2 -1 2
    vertex 2 -2 3
    vertex 2 -3 2
  endloop
endfacet

facet normal 1 0 0
  outer loop
    vertex 2 -3 2
    vertex 2 -2 1
    vertex 2 -1 2
  endloop
endfacet

facet normal 1 0 0
  outer loop
    vertex 1 1 -4
    vertex 1 0 -3
    vertex 1 -1 -4
  endloop
endfacet

facet normal 1 0 0
  outer loop
    vertex 1 -1 -4
    vertex 1 0 -5
    vertex 1 1 -4
  endloop
endfacet

facet normal 1 0 0
  outer loop
    vertex 1 1 -2
    vertex 1 0 -1
    vertex 1 -1 -2
  endloop
endfacet

facet normal 1 0 0
  outer loop
    vertex 1 -1 -2
    vertex 1 0 -3
    vertex 1 1 -2
  endloop
endfacet

facet normal 1 0 0
  outer loop
    vertex 1 1 0
    vertex 1 0 1
    vertex 1 -1 0
  endloop
endfacet

facet normal 1 0 0
  outer loop
    vertex 1 -1 0
    vertex 1 0 -1
    vertex 1 1 0
  endloop
endfacet

facet normal 1 0 0
  outer loop
    vertex 1 1 2
    vertex 1 0 3
    vertex 1 -1 2
  endloop
endfacet

facet normal 1 0 0
  outer loop
    vertex 1 -1 2
    vertex 1 0 1
    vertex 1 1 2
  endloop
endfacet

facet normal 1 0 0
  outer loop
    vertex 1 1 4
    vertex 1 0 5
    vertex 1 -1 4
  endloop
endfacet

facet normal 1 0 0
  outer loop
    vertex 1 -1 4
    vertex 1 0 3
    vertex 1 1 4
  endloop
endfacet

facet normal 1 0 0
  outer loop
    vertex 2 3 -2
    vertex 2 2 -1
    vertex 2 1 -2
  endloop
endfacet

facet normal 1 0 0
  outer loop
    vertex 2 1 -2
    vertex 2 2 -3
    vertex 2 3 -2
  endloop
endfacet

facet normal 1 0 0
  outer loop
    vertex 1 3 0
    vertex 1 2 1
    vertex 1 1 0
  endloop
endfacet

facet normal 1 0 0
  outer loop
    vertex 1 1 0
    vertex 1 2 -1
    vertex 1 3 0
  endloop
endfacet

facet normal 1 0 0
  outer loop
    vertex 2 3 2
    vertex 2 2 3
    vertex 2 1 2
  endloop
endfacet

facet normal 1 0 0
  outer loop
    vertex 2 1 2
    vertex 2 2 1
    vertex 2 3 2
  endloop
endfacet

facet normal 1 0 0
  outer loop
    vertex 1 5 0
    vertex 1 4 1
    vertex 1 3 0
  endloop
endfacet

facet normal 1 0 0
  outer loop
    vertex 1 3 0
    vertex 1 4 -1
    vertex 1 5 0
  endloop
endfacet

 endsolid 17